<mxfile host="app.diagrams.net" agent="Mozilla/5.0 (X11; Linux x86_64; rv:123.0) Gecko/20100101 Firefox/123.0" version="26.1.2">
  <diagram name="Page-1" id="HWmt5Urbsn86L-mC_3KS">
    <mxGraphModel dx="3585" dy="1863" grid="1" gridSize="10" guides="1" tooltips="1" connect="1" arrows="1" fold="1" page="1" pageScale="1" pageWidth="827" pageHeight="1169" math="0" shadow="0">
      <root>
        <mxCell id="0" />
        <mxCell id="1" parent="0" />
        <mxCell id="6-xbdz2pGOul1mN464Db-23" value="src/main" style="shape=folder;fontStyle=1;tabWidth=110;tabHeight=30;tabPosition=left;html=1;boundedLbl=1;labelInHeader=1;container=1;collapsible=0;whiteSpace=wrap;movable=1;resizable=1;rotatable=1;deletable=1;editable=1;locked=0;connectable=1;" vertex="1" parent="1">
          <mxGeometry x="90" y="370" width="2030" height="680" as="geometry" />
        </mxCell>
        <mxCell id="6-xbdz2pGOul1mN464Db-40" value="tests" style="shape=folder;fontStyle=1;tabWidth=110;tabHeight=30;tabPosition=left;html=1;boundedLbl=1;labelInHeader=1;container=1;collapsible=0;whiteSpace=wrap;" vertex="1" parent="6-xbdz2pGOul1mN464Db-23">
          <mxGeometry x="980" y="50" width="1009.4" height="610" as="geometry" />
        </mxCell>
        <mxCell id="6-xbdz2pGOul1mN464Db-41" value="" style="html=1;strokeColor=none;resizeWidth=1;resizeHeight=1;fillColor=none;part=1;connectable=0;allowArrows=0;deletable=0;whiteSpace=wrap;" vertex="1" parent="6-xbdz2pGOul1mN464Db-40">
          <mxGeometry width="983.0163272176402" height="426.99999999999994" relative="1" as="geometry">
            <mxPoint y="30" as="offset" />
          </mxGeometry>
        </mxCell>
        <mxCell id="6-xbdz2pGOul1mN464Db-42" value="" style="html=1;strokeColor=none;resizeWidth=1;resizeHeight=1;fillColor=none;part=1;connectable=0;allowArrows=0;deletable=0;whiteSpace=wrap;" vertex="1" parent="6-xbdz2pGOul1mN464Db-40">
          <mxGeometry x="36.731213068861244" y="45.24085592769802" width="972.6687869311388" height="439.9393939393938" as="geometry" />
        </mxCell>
        <mxCell id="6-xbdz2pGOul1mN464Db-57" value="unit" style="shape=folder;fontStyle=1;tabWidth=110;tabHeight=30;tabPosition=left;html=1;boundedLbl=1;labelInHeader=1;container=0;collapsible=0;whiteSpace=wrap;" vertex="1" parent="6-xbdz2pGOul1mN464Db-40">
          <mxGeometry x="39.58" y="40.67" width="930.23" height="389.33" as="geometry" />
        </mxCell>
        <mxCell id="6-xbdz2pGOul1mN464Db-58" value="" style="html=1;strokeColor=none;resizeWidth=1;resizeHeight=1;fillColor=none;part=1;connectable=0;allowArrows=0;deletable=0;whiteSpace=wrap;" vertex="1" parent="6-xbdz2pGOul1mN464Db-40">
          <mxGeometry x="1109.5843137254901" y="490.6666666666667" width="930.2313725490197" height="327.3666666666667" as="geometry">
            <mxPoint y="30" as="offset" />
          </mxGeometry>
        </mxCell>
        <mxCell id="6-xbdz2pGOul1mN464Db-71" value="backend.es.alvarogrlp.marvelsim.controller" style="shape=folder;fontStyle=1;tabWidth=260;tabHeight=20;tabPosition=left;html=1;boundedLbl=1;labelInHeader=1;container=1;collapsible=0;whiteSpace=wrap;" vertex="1" parent="6-xbdz2pGOul1mN464Db-40">
          <mxGeometry x="70.00431372549012" y="86.41666666666669" width="350" height="64.25" as="geometry" />
        </mxCell>
        <mxCell id="6-xbdz2pGOul1mN464Db-72" value="" style="html=1;strokeColor=none;resizeWidth=1;resizeHeight=1;fillColor=none;part=1;connectable=0;allowArrows=0;deletable=0;whiteSpace=wrap;" vertex="1" parent="6-xbdz2pGOul1mN464Db-71">
          <mxGeometry width="350.00000000000006" height="44.975" relative="1" as="geometry">
            <mxPoint y="30" as="offset" />
          </mxGeometry>
        </mxCell>
        <mxCell id="6-xbdz2pGOul1mN464Db-73" value="backend.es.alvarogrlp.marvelsim.model" style="shape=folder;fontStyle=1;tabWidth=260;tabHeight=20;tabPosition=left;html=1;boundedLbl=1;labelInHeader=1;container=1;collapsible=0;whiteSpace=wrap;" vertex="1" parent="6-xbdz2pGOul1mN464Db-40">
          <mxGeometry x="70.00431372549012" y="169.99666666666667" width="350" height="69.38" as="geometry" />
        </mxCell>
        <mxCell id="6-xbdz2pGOul1mN464Db-74" value="" style="html=1;strokeColor=none;resizeWidth=1;resizeHeight=1;fillColor=none;part=1;connectable=0;allowArrows=0;deletable=0;whiteSpace=wrap;" vertex="1" parent="6-xbdz2pGOul1mN464Db-73">
          <mxGeometry width="350.00000000000006" height="48.566" relative="1" as="geometry">
            <mxPoint y="30" as="offset" />
          </mxGeometry>
        </mxCell>
        <mxCell id="6-xbdz2pGOul1mN464Db-75" value="backend.es.alvarogrlp.marvelsim.view" style="shape=folder;fontStyle=1;tabWidth=260;tabHeight=20;tabPosition=left;html=1;boundedLbl=1;labelInHeader=1;container=1;collapsible=0;whiteSpace=wrap;" vertex="1" parent="6-xbdz2pGOul1mN464Db-40">
          <mxGeometry x="70.00431372549012" y="269.99666666666667" width="350" height="74.33" as="geometry" />
        </mxCell>
        <mxCell id="6-xbdz2pGOul1mN464Db-76" value="" style="html=1;strokeColor=none;resizeWidth=1;resizeHeight=1;fillColor=none;part=1;connectable=0;allowArrows=0;deletable=0;whiteSpace=wrap;" vertex="1" parent="6-xbdz2pGOul1mN464Db-75">
          <mxGeometry width="350.00000000000006" height="52.031000000000006" relative="1" as="geometry">
            <mxPoint y="30" as="offset" />
          </mxGeometry>
        </mxCell>
        <mxCell id="6-xbdz2pGOul1mN464Db-77" value="frontend.es.alvarogrlp.marvelsim.controller" style="shape=folder;fontStyle=1;tabWidth=260;tabHeight=20;tabPosition=left;html=1;boundedLbl=1;labelInHeader=1;container=1;collapsible=0;whiteSpace=wrap;" vertex="1" parent="6-xbdz2pGOul1mN464Db-40">
          <mxGeometry x="490.00431372549014" y="86.41666666666669" width="350" height="64.25" as="geometry" />
        </mxCell>
        <mxCell id="6-xbdz2pGOul1mN464Db-78" value="" style="html=1;strokeColor=none;resizeWidth=1;resizeHeight=1;fillColor=none;part=1;connectable=0;allowArrows=0;deletable=0;whiteSpace=wrap;" vertex="1" parent="6-xbdz2pGOul1mN464Db-77">
          <mxGeometry width="350.00000000000006" height="44.975" relative="1" as="geometry">
            <mxPoint y="30" as="offset" />
          </mxGeometry>
        </mxCell>
        <mxCell id="6-xbdz2pGOul1mN464Db-79" value="frontend.es.alvarogrlp.marvelsim.model" style="shape=folder;fontStyle=1;tabWidth=260;tabHeight=20;tabPosition=left;html=1;boundedLbl=1;labelInHeader=1;container=1;collapsible=0;whiteSpace=wrap;" vertex="1" parent="6-xbdz2pGOul1mN464Db-40">
          <mxGeometry x="490.00431372549014" y="170.49666666666667" width="350" height="68.87" as="geometry" />
        </mxCell>
        <mxCell id="6-xbdz2pGOul1mN464Db-80" value="" style="html=1;strokeColor=none;resizeWidth=1;resizeHeight=1;fillColor=none;part=1;connectable=0;allowArrows=0;deletable=0;whiteSpace=wrap;" vertex="1" parent="6-xbdz2pGOul1mN464Db-79">
          <mxGeometry width="350.00000000000006" height="48.209" relative="1" as="geometry">
            <mxPoint y="30" as="offset" />
          </mxGeometry>
        </mxCell>
        <mxCell id="6-xbdz2pGOul1mN464Db-81" value="frontend.es.alvarogrlp.marvelsim.view" style="shape=folder;fontStyle=1;tabWidth=260;tabHeight=20;tabPosition=left;html=1;boundedLbl=1;labelInHeader=1;container=1;collapsible=0;whiteSpace=wrap;" vertex="1" parent="6-xbdz2pGOul1mN464Db-40">
          <mxGeometry x="490.00431372549014" y="269.99666666666667" width="350" height="70.67" as="geometry" />
        </mxCell>
        <mxCell id="6-xbdz2pGOul1mN464Db-82" value="" style="html=1;strokeColor=none;resizeWidth=1;resizeHeight=1;fillColor=none;part=1;connectable=0;allowArrows=0;deletable=0;whiteSpace=wrap;" vertex="1" parent="6-xbdz2pGOul1mN464Db-81">
          <mxGeometry width="350.00000000000006" height="49.469" relative="1" as="geometry">
            <mxPoint y="30" as="offset" />
          </mxGeometry>
        </mxCell>
        <mxCell id="6-xbdz2pGOul1mN464Db-55" value="integration" style="shape=folder;fontStyle=1;tabWidth=110;tabHeight=30;tabPosition=left;html=1;boundedLbl=1;labelInHeader=1;container=1;collapsible=0;whiteSpace=wrap;" vertex="1" parent="6-xbdz2pGOul1mN464Db-40">
          <mxGeometry x="340" y="460" width="280" height="111.43" as="geometry" />
        </mxCell>
        <mxCell id="6-xbdz2pGOul1mN464Db-56" value="" style="html=1;strokeColor=none;resizeWidth=1;resizeHeight=1;fillColor=none;part=1;connectable=0;allowArrows=0;deletable=0;whiteSpace=wrap;" vertex="1" parent="6-xbdz2pGOul1mN464Db-55">
          <mxGeometry width="280" height="78.001" relative="1" as="geometry">
            <mxPoint y="30" as="offset" />
          </mxGeometry>
        </mxCell>
        <mxCell id="6-xbdz2pGOul1mN464Db-1" value="docs" style="shape=folder;fontStyle=1;tabWidth=110;tabHeight=30;tabPosition=left;html=1;boundedLbl=1;labelInHeader=1;container=1;collapsible=0;whiteSpace=wrap;" vertex="1" parent="1">
          <mxGeometry x="90" y="106" width="150" height="140" as="geometry" />
        </mxCell>
        <mxCell id="6-xbdz2pGOul1mN464Db-2" value="&lt;div&gt;api.md&lt;/div&gt;&lt;div&gt;arquitectura.md&lt;/div&gt;&lt;div&gt;casos_de_uos.md&lt;/div&gt;&lt;div&gt;guia_usuario.md&lt;/div&gt;&lt;div&gt;instalacion.md&lt;/div&gt;&lt;div&gt;requisistos.md&lt;br&gt;&lt;/div&gt;" style="html=1;strokeColor=none;resizeWidth=1;resizeHeight=1;fillColor=none;part=1;connectable=0;allowArrows=0;deletable=0;whiteSpace=wrap;" vertex="1" parent="6-xbdz2pGOul1mN464Db-1">
          <mxGeometry width="150" height="98" relative="1" as="geometry">
            <mxPoint y="30" as="offset" />
          </mxGeometry>
        </mxCell>
        <mxCell id="6-xbdz2pGOul1mN464Db-3" value="images" style="shape=folder;fontStyle=1;tabWidth=110;tabHeight=30;tabPosition=left;html=1;boundedLbl=1;labelInHeader=1;container=1;collapsible=0;whiteSpace=wrap;" vertex="1" parent="1">
          <mxGeometry x="90" y="270" width="150" height="60" as="geometry" />
        </mxCell>
        <mxCell id="6-xbdz2pGOul1mN464Db-4" value="" style="html=1;strokeColor=none;resizeWidth=1;resizeHeight=1;fillColor=none;part=1;connectable=0;allowArrows=0;deletable=0;whiteSpace=wrap;" vertex="1" parent="6-xbdz2pGOul1mN464Db-3">
          <mxGeometry width="150" height="42" relative="1" as="geometry">
            <mxPoint y="30" as="offset" />
          </mxGeometry>
        </mxCell>
        <mxCell id="6-xbdz2pGOul1mN464Db-13" value="config" style="shape=folder;fontStyle=1;tabWidth=110;tabHeight=30;tabPosition=left;html=1;boundedLbl=1;labelInHeader=1;container=1;collapsible=0;whiteSpace=wrap;" vertex="1" parent="1">
          <mxGeometry x="280" y="270" width="150" height="60" as="geometry" />
        </mxCell>
        <mxCell id="6-xbdz2pGOul1mN464Db-14" value="" style="html=1;strokeColor=none;resizeWidth=1;resizeHeight=1;fillColor=none;part=1;connectable=0;allowArrows=0;deletable=0;whiteSpace=wrap;" vertex="1" parent="6-xbdz2pGOul1mN464Db-13">
          <mxGeometry width="150" height="42" relative="1" as="geometry">
            <mxPoint y="30" as="offset" />
          </mxGeometry>
        </mxCell>
        <mxCell id="6-xbdz2pGOul1mN464Db-21" value="target" style="shape=folder;fontStyle=1;tabWidth=110;tabHeight=30;tabPosition=left;html=1;boundedLbl=1;labelInHeader=1;container=1;collapsible=0;whiteSpace=wrap;" vertex="1" parent="1">
          <mxGeometry x="470" y="270" width="150" height="60" as="geometry" />
        </mxCell>
        <mxCell id="6-xbdz2pGOul1mN464Db-22" value="" style="html=1;strokeColor=none;resizeWidth=1;resizeHeight=1;fillColor=none;part=1;connectable=0;allowArrows=0;deletable=0;whiteSpace=wrap;" vertex="1" parent="6-xbdz2pGOul1mN464Db-21">
          <mxGeometry width="150" height="42" relative="1" as="geometry">
            <mxPoint y="30" as="offset" />
          </mxGeometry>
        </mxCell>
        <mxCell id="6-xbdz2pGOul1mN464Db-25" value="java" style="shape=folder;fontStyle=1;tabWidth=110;tabHeight=30;tabPosition=left;html=1;boundedLbl=1;labelInHeader=1;container=1;collapsible=0;whiteSpace=wrap;" vertex="1" parent="1">
          <mxGeometry x="127.6932584269664" y="419.9983870967742" width="887.8123595505617" height="606.7741935483871" as="geometry" />
        </mxCell>
        <mxCell id="6-xbdz2pGOul1mN464Db-26" value="" style="html=1;strokeColor=none;resizeWidth=1;resizeHeight=1;fillColor=none;part=1;connectable=0;allowArrows=0;deletable=0;whiteSpace=wrap;" vertex="1" parent="6-xbdz2pGOul1mN464Db-25">
          <mxGeometry width="864.6067415730337" height="424.7419354838709" relative="1" as="geometry">
            <mxPoint y="30" as="offset" />
          </mxGeometry>
        </mxCell>
        <mxCell id="6-xbdz2pGOul1mN464Db-27" value="" style="html=1;strokeColor=none;resizeWidth=1;resizeHeight=1;fillColor=none;part=1;connectable=0;allowArrows=0;deletable=0;whiteSpace=wrap;" vertex="1" parent="6-xbdz2pGOul1mN464Db-25">
          <mxGeometry x="32.306741573033605" y="45.001612903225805" width="855.5056179775281" height="437.61290322580635" as="geometry" />
        </mxCell>
        <mxCell id="6-xbdz2pGOul1mN464Db-28" value="backend.es.alvarogrlp.marvelsim.controller" style="shape=folder;fontStyle=1;tabWidth=260;tabHeight=20;tabPosition=left;html=1;boundedLbl=1;labelInHeader=1;container=1;collapsible=0;whiteSpace=wrap;" vertex="1" parent="6-xbdz2pGOul1mN464Db-25">
          <mxGeometry x="42.306741573033605" y="75.0016129032258" width="350" height="130" as="geometry" />
        </mxCell>
        <mxCell id="6-xbdz2pGOul1mN464Db-29" value="" style="html=1;strokeColor=none;resizeWidth=1;resizeHeight=1;fillColor=none;part=1;connectable=0;allowArrows=0;deletable=0;whiteSpace=wrap;" vertex="1" parent="6-xbdz2pGOul1mN464Db-28">
          <mxGeometry width="350.00000000000006" height="91" relative="1" as="geometry">
            <mxPoint y="30" as="offset" />
          </mxGeometry>
        </mxCell>
        <mxCell id="6-xbdz2pGOul1mN464Db-30" value="backend.es.alvarogrlp.marvelsim.model" style="shape=folder;fontStyle=1;tabWidth=260;tabHeight=20;tabPosition=left;html=1;boundedLbl=1;labelInHeader=1;container=1;collapsible=0;whiteSpace=wrap;" vertex="1" parent="6-xbdz2pGOul1mN464Db-25">
          <mxGeometry x="42.306741573033605" y="235.0016129032258" width="350" height="130" as="geometry" />
        </mxCell>
        <mxCell id="6-xbdz2pGOul1mN464Db-31" value="" style="html=1;strokeColor=none;resizeWidth=1;resizeHeight=1;fillColor=none;part=1;connectable=0;allowArrows=0;deletable=0;whiteSpace=wrap;" vertex="1" parent="6-xbdz2pGOul1mN464Db-30">
          <mxGeometry width="350.00000000000006" height="91" relative="1" as="geometry">
            <mxPoint y="30" as="offset" />
          </mxGeometry>
        </mxCell>
        <mxCell id="6-xbdz2pGOul1mN464Db-32" value="backend.es.alvarogrlp.marvelsim.view" style="shape=folder;fontStyle=1;tabWidth=260;tabHeight=20;tabPosition=left;html=1;boundedLbl=1;labelInHeader=1;container=1;collapsible=0;whiteSpace=wrap;" vertex="1" parent="6-xbdz2pGOul1mN464Db-25">
          <mxGeometry x="42.306741573033605" y="405.0016129032258" width="350" height="130" as="geometry" />
        </mxCell>
        <mxCell id="6-xbdz2pGOul1mN464Db-33" value="" style="html=1;strokeColor=none;resizeWidth=1;resizeHeight=1;fillColor=none;part=1;connectable=0;allowArrows=0;deletable=0;whiteSpace=wrap;" vertex="1" parent="6-xbdz2pGOul1mN464Db-32">
          <mxGeometry width="350.00000000000006" height="91" relative="1" as="geometry">
            <mxPoint y="30" as="offset" />
          </mxGeometry>
        </mxCell>
        <mxCell id="6-xbdz2pGOul1mN464Db-34" value="frontend.es.alvarogrlp.marvelsim.controller" style="shape=folder;fontStyle=1;tabWidth=260;tabHeight=20;tabPosition=left;html=1;boundedLbl=1;labelInHeader=1;container=1;collapsible=0;whiteSpace=wrap;" vertex="1" parent="6-xbdz2pGOul1mN464Db-25">
          <mxGeometry x="462.3067415730336" y="75.0016129032258" width="350" height="130" as="geometry" />
        </mxCell>
        <mxCell id="6-xbdz2pGOul1mN464Db-35" value="" style="html=1;strokeColor=none;resizeWidth=1;resizeHeight=1;fillColor=none;part=1;connectable=0;allowArrows=0;deletable=0;whiteSpace=wrap;" vertex="1" parent="6-xbdz2pGOul1mN464Db-34">
          <mxGeometry width="350.00000000000006" height="91" relative="1" as="geometry">
            <mxPoint y="30" as="offset" />
          </mxGeometry>
        </mxCell>
        <mxCell id="6-xbdz2pGOul1mN464Db-36" value="frontend.es.alvarogrlp.marvelsim.model" style="shape=folder;fontStyle=1;tabWidth=260;tabHeight=20;tabPosition=left;html=1;boundedLbl=1;labelInHeader=1;container=1;collapsible=0;whiteSpace=wrap;" vertex="1" parent="6-xbdz2pGOul1mN464Db-25">
          <mxGeometry x="462.3067415730336" y="235.0016129032258" width="350" height="130" as="geometry" />
        </mxCell>
        <mxCell id="6-xbdz2pGOul1mN464Db-37" value="" style="html=1;strokeColor=none;resizeWidth=1;resizeHeight=1;fillColor=none;part=1;connectable=0;allowArrows=0;deletable=0;whiteSpace=wrap;" vertex="1" parent="6-xbdz2pGOul1mN464Db-36">
          <mxGeometry width="350.00000000000006" height="91" relative="1" as="geometry">
            <mxPoint y="30" as="offset" />
          </mxGeometry>
        </mxCell>
        <mxCell id="6-xbdz2pGOul1mN464Db-38" value="frontend.es.alvarogrlp.marvelsim.view" style="shape=folder;fontStyle=1;tabWidth=260;tabHeight=20;tabPosition=left;html=1;boundedLbl=1;labelInHeader=1;container=1;collapsible=0;whiteSpace=wrap;" vertex="1" parent="6-xbdz2pGOul1mN464Db-25">
          <mxGeometry x="462.3067415730336" y="405.0016129032258" width="350" height="130" as="geometry" />
        </mxCell>
        <mxCell id="6-xbdz2pGOul1mN464Db-39" value="" style="html=1;strokeColor=none;resizeWidth=1;resizeHeight=1;fillColor=none;part=1;connectable=0;allowArrows=0;deletable=0;whiteSpace=wrap;" vertex="1" parent="6-xbdz2pGOul1mN464Db-38">
          <mxGeometry width="350.00000000000006" height="91" relative="1" as="geometry">
            <mxPoint y="30" as="offset" />
          </mxGeometry>
        </mxCell>
      </root>
    </mxGraphModel>
  </diagram>
</mxfile>
